<svg width="139" height="62" viewBox="0 0 139 62" fill="none" xmlns="http://www.w3.org/2000/svg">
<path fill-rule="evenodd" clip-rule="evenodd" d="M42.6606 21.4795L42.6606 21.48C30.9555 21.5059 21.4506 30.9559 21.3574 42.6611L21.3568 42.6611C21.333 30.9179 11.8236 21.3883 0.0667771 21.3534C11.8599 21.3884 21.4485 11.8565 21.4835 0.0633673C21.4486 11.8188 30.9196 21.3838 42.6606 21.4795ZM0.130133 0.000246915L0.0667771 21.3534L0.00374401 42.5977L7.52876e-05 42.5977L0.126464 0.00023603L0.130133 0.000246915Z" fill="url(#paint0_linear_140_2973)"/>
<path fill-rule="evenodd" clip-rule="evenodd" d="M48.9448 44.2791L48.9448 44.2795C40.5203 44.81 34.0916 52.0278 34.5362 60.4576L34.5358 60.4576C34.0051 52.0057 26.7433 45.5618 18.2789 46.0507C26.7695 45.5602 33.2549 38.2797 32.7645 29.7891C33.2534 38.2525 40.4891 44.7236 48.9448 44.2791ZM17.3909 30.6771L18.2789 46.0507L19.1624 61.3457L19.1597 61.3458L17.3882 30.6773L17.3909 30.6771Z" fill="url(#paint1_linear_140_2973)"/>
<path d="M69.1206 42.1038L67.4282 37.299H60.8129L59.1205 42.1038H56.1265L62.5643 24.731H65.7123L72.1383 42.1038H69.1206ZM66.6945 34.8612L65.0495 30.1274C64.9864 29.9223 64.8957 29.6343 64.7774 29.2635C64.659 28.8848 64.5407 28.5022 64.4223 28.1156C64.304 27.7211 64.2054 27.3897 64.1265 27.1215C64.0476 27.445 63.949 27.8079 63.8306 28.2103C63.7202 28.6047 63.6097 28.9755 63.4993 29.3227C63.3967 29.6698 63.3178 29.9381 63.2626 30.1274L61.6058 34.8612H66.6945ZM74.5435 42.1038V24.802H77.3838V42.1038H74.5435ZM90.9871 23.6895V28.3168C90.9871 28.798 90.9713 29.2675 90.9397 29.7251C90.9161 30.1826 90.8885 30.5377 90.8569 30.7901H91.0107C91.2869 30.3325 91.6261 29.9578 92.0285 29.6659C92.4309 29.3661 92.8806 29.1412 93.3776 28.9913C93.8825 28.8414 94.419 28.7665 94.9871 28.7665C95.9891 28.7665 96.8411 28.9361 97.5433 29.2753C98.2455 29.6067 98.782 30.1235 99.1528 30.8256C99.5315 31.5278 99.7208 32.4391 99.7208 33.5594V42.1038H96.9397V34.0801C96.9397 33.0623 96.7307 32.301 96.3125 31.7961C95.8944 31.2832 95.2474 31.0268 94.3717 31.0268C93.5275 31.0268 92.8569 31.2043 92.3599 31.5594C91.8707 31.9065 91.5196 32.4233 91.3066 33.1097C91.0936 33.7882 90.9871 34.6166 90.9871 35.5949V42.1038H88.206V23.6895H90.9871ZM108.954 28.7546C110.122 28.7546 111.124 28.9953 111.96 29.4765C112.797 29.9578 113.44 30.6402 113.889 31.5239C114.339 32.4075 114.564 33.4647 114.564 34.6955V36.1866H105.818C105.85 37.4568 106.189 38.4351 106.836 39.1215C107.491 39.8079 108.406 40.1511 109.582 40.1511C110.418 40.1511 111.167 40.0722 111.83 39.9144C112.501 39.7487 113.191 39.5081 113.901 39.1925V41.4529C113.246 41.7606 112.58 41.9854 111.901 42.1274C111.223 42.2694 110.41 42.3404 109.463 42.3404C108.177 42.3404 107.045 42.0919 106.067 41.5949C105.096 41.09 104.335 40.3404 103.783 39.3464C103.238 38.3523 102.966 37.1176 102.966 35.6422C102.966 34.1748 103.215 32.9282 103.712 31.9026C104.209 30.8769 104.907 30.0959 105.806 29.5594C106.706 29.0229 107.755 28.7546 108.954 28.7546ZM108.954 30.8493C108.079 30.8493 107.369 31.1333 106.824 31.7014C106.288 32.2694 105.972 33.1018 105.878 34.1984H111.842C111.834 33.5436 111.724 32.9637 111.511 32.4588C111.306 31.9539 110.99 31.5594 110.564 31.2754C110.146 30.9913 109.609 30.8493 108.954 30.8493ZM120.614 42.1038H117.821V23.6895H120.614V42.1038ZM131.433 28.7546C132.988 28.7546 134.234 29.3227 135.173 30.4588C136.12 31.5949 136.593 33.2832 136.593 35.5239C136.593 37.0071 136.372 38.2576 135.931 39.2754C135.497 40.2852 134.885 41.0505 134.096 41.5712C133.315 42.084 132.404 42.3404 131.362 42.3404C130.7 42.3404 130.124 42.2537 129.635 42.0801C129.146 41.9065 128.727 41.6817 128.38 41.4055C128.033 41.1215 127.741 40.8138 127.505 40.4825H127.339C127.378 40.798 127.414 41.1491 127.445 41.5357C127.485 41.9144 127.505 42.2616 127.505 42.5771V47.9144H124.712V29.0032H126.984L127.374 30.8138H127.505C127.749 30.443 128.045 30.0998 128.392 29.7842C128.747 29.4686 129.173 29.2201 129.67 29.0387C130.175 28.8493 130.763 28.7546 131.433 28.7546ZM130.688 31.0268C129.923 31.0268 129.307 31.1807 128.842 31.4884C128.384 31.7882 128.049 32.2418 127.836 32.8493C127.631 33.4568 127.52 34.2182 127.505 35.1333V35.5239C127.505 36.4943 127.603 37.3187 127.8 37.9972C128.005 38.6679 128.341 39.1807 128.806 39.5357C129.28 39.8829 129.919 40.0564 130.723 40.0564C131.402 40.0564 131.962 39.871 132.404 39.5002C132.854 39.1294 133.189 38.6008 133.41 37.9144C133.631 37.228 133.741 36.4193 133.741 35.4884C133.741 34.0761 133.489 32.9795 132.984 32.1984C132.487 31.4174 131.721 31.0268 130.688 31.0268Z" fill="black"/>
<defs>
<linearGradient id="paint0_linear_140_2973" x1="9.57499" y1="10.4585" x2="22.383" y2="41.6092" gradientUnits="userSpaceOnUse">
<stop stop-color="#257EBC"/>
<stop offset="1" stop-color="#FFDDB7"/>
</linearGradient>
<linearGradient id="paint1_linear_140_2973" x1="24.6468" y1="37.7925" x2="35.2285" y2="59.6557" gradientUnits="userSpaceOnUse">
<stop stop-color="#257EBC"/>
<stop offset="1" stop-color="#FFDDB7"/>
</linearGradient>
</defs>
</svg>
