<svg width="139" height="187" viewBox="0 0 139 187" fill="none" xmlns="http://www.w3.org/2000/svg">
<path fill-rule="evenodd" clip-rule="evenodd" d="M120.66 78.8219C111.417 78.9797 94.6458 74.8996 91.0049 107.897C88.5899 87.4701 76.8928 79.795 62.0053 79.538C73.2328 78.9 86.2296 80.8419 89.3775 47.2447C91.6374 79.4263 111.158 78.7425 120.66 78.8219Z" fill="white" stroke="#257EBC" stroke-width="5" stroke-miterlimit="1.5" stroke-linecap="round" stroke-linejoin="round"/>
<path fill-rule="evenodd" clip-rule="evenodd" d="M75.9564 111.346C66.7141 111.504 49.4483 103.134 45.8073 136.131C43.3923 115.704 32.1897 112.319 17.3022 112.062C28.5302 111.424 41.5875 110.24 45.0539 86.9207C47.3037 109.456 63.3113 108.881 75.9564 111.346Z" fill="white" stroke="#257EBC" stroke-width="5" stroke-miterlimit="1.5" stroke-linecap="round" stroke-linejoin="round"/>
<path d="M122.922 43.8419C118.471 49.2147 113.285 53.4949 108.933 59.0059" stroke="#257EBC" stroke-width="5" stroke-miterlimit="1.5" stroke-linecap="round" stroke-linejoin="round"/>
<path d="M106.036 95.6708C108.492 99.6225 111.279 103.353 114.278 106.543" stroke="#257EBC" stroke-width="5" stroke-miterlimit="1.5" stroke-linecap="round" stroke-linejoin="round"/>
<path d="M74.5015 60.7889C70.7965 55.4819 66.6837 50.5617 62.6177 45.7705" stroke="#257EBC" stroke-width="5" stroke-miterlimit="1.5" stroke-linecap="round" stroke-linejoin="round"/>
<path d="M66.5586 94.1632C65.9101 94.7552 65.3213 95.4672 64.7 96.1112" stroke="#257EBC" stroke-width="5" stroke-miterlimit="1.5" stroke-linecap="round" stroke-linejoin="round"/>
<path d="M29.0866 87.9864C30.0327 89.2483 30.9455 90.5558 31.9061 91.7981" stroke="#257EBC" stroke-width="5" stroke-miterlimit="1.5" stroke-linecap="round" stroke-linejoin="round"/>
<path d="M59.8188 125.073C63.6295 130.662 67.8004 135.514 72.2041 140.205" stroke="#257EBC" stroke-width="5" stroke-miterlimit="1.5" stroke-linecap="round" stroke-linejoin="round"/>
<path d="M29.2344 126.82C26.2817 133.499 20.092 138.198 15.5852 142.85" stroke="#257EBC" stroke-width="5" stroke-miterlimit="1.5" stroke-linecap="round" stroke-linejoin="round"/>
</svg>
