<svg width="168" height="136" viewBox="0 0 168 136" fill="none" xmlns="http://www.w3.org/2000/svg">
<path fill-rule="evenodd" clip-rule="evenodd" d="M71.2854 16.2868C71.3267 25.5304 67.4434 42.2509 97.3162 46.2923C78.7722 48.4591 71.6857 60.0622 71.2889 74.9454C70.8341 63.711 72.7375 50.7387 42.3154 47.183C71.5138 45.3141 71.1088 25.7862 71.2854 16.2868Z" fill="white" stroke="#C5C2C2" stroke-width="5" stroke-miterlimit="1.5" stroke-linecap="round" stroke-linejoin="round"/>
<path fill-rule="evenodd" clip-rule="evenodd" d="M100.278 61.3813C100.319 70.6249 92.5408 87.7877 122.414 91.8291C103.87 93.9959 100.678 105.157 100.281 120.04C99.8263 108.805 98.8963 95.7342 77.7949 91.9849C98.2484 90.009 97.9034 73.9955 100.278 61.3813Z" fill="white" stroke="#C5C2C2" stroke-width="5" stroke-miterlimit="1.5" stroke-linecap="round" stroke-linejoin="round"/>
<path d="M39.5996 13.6C44.4212 18.1156 48.2442 23.3537 53.1922 27.7718" stroke="#C5C2C2" stroke-width="5" stroke-miterlimit="1.5" stroke-linecap="round" stroke-linejoin="round"/>
<path d="M86.3984 31.1133C90.0078 28.7054 93.4205 25.9637 96.345 23.0042" stroke="#C5C2C2" stroke-width="5" stroke-miterlimit="1.5" stroke-linecap="round" stroke-linejoin="round"/>
<path d="M54.43 62.2228C49.5783 65.863 45.0727 69.9158 40.6846 73.9233" stroke="#C5C2C2" stroke-width="5" stroke-miterlimit="1.5" stroke-linecap="round" stroke-linejoin="round"/>
<path d="M84.5977 70.5704C85.1272 71.226 85.7662 71.8234 86.3432 72.4525" stroke="#C5C2C2" stroke-width="5" stroke-miterlimit="1.5" stroke-linecap="round" stroke-linejoin="round"/>
<path d="M78.585 107.964C79.7393 107.033 80.9347 106.136 82.0715 105.191" stroke="#C5C2C2" stroke-width="5" stroke-miterlimit="1.5" stroke-linecap="round" stroke-linejoin="round"/>
<path d="M112.544 77.6844C117.653 73.9419 122.096 69.8302 126.398 65.4838" stroke="#C5C2C2" stroke-width="5" stroke-miterlimit="1.5" stroke-linecap="round" stroke-linejoin="round"/>
<path d="M113.79 108.288C119.813 111.321 124.004 117.568 128.172 122.131" stroke="#C5C2C2" stroke-width="5" stroke-miterlimit="1.5" stroke-linecap="round" stroke-linejoin="round"/>
</svg>
