<svg width="452" height="50" viewBox="0 0 452 50" fill="none" xmlns="http://www.w3.org/2000/svg">
<path d="M49.71 49H37.145L29.305 16.765H31.195L23.355 49H10.72L0.184955 2.8H12.19L17.755 35.21H17.615L26.295 2.8H34.17L42.885 35.21H42.745L48.31 2.8H60.315L49.71 49ZM67.1777 49V20.265H77.8177V49H67.1777ZM72.6377 14.35C70.9577 14.35 69.5344 13.7667 68.3677 12.6C67.201 11.41 66.6177 9.99833 66.6177 8.365C66.6177 6.73166 67.201 5.32 68.3677 4.13C69.5577 2.91666 70.981 2.31 72.6377 2.31C73.7344 2.31 74.7377 2.59 75.6477 3.15C76.5577 3.68666 77.2927 4.41 77.8527 5.32C78.4127 6.23 78.6927 7.245 78.6927 8.365C78.6927 9.99833 78.0977 11.41 76.9077 12.6C75.7177 13.7667 74.2944 14.35 72.6377 14.35ZM105.273 19.425C107.28 19.425 109.24 19.8333 111.153 20.65C113.066 21.4667 114.641 22.7617 115.878 24.535C117.115 26.285 117.733 28.595 117.733 31.465V49H107.058V33.215C107.058 31.1617 106.568 29.6217 105.588 28.595C104.608 27.545 103.325 27.02 101.738 27.02C100.688 27.02 99.6963 27.3 98.763 27.86C97.853 28.3967 97.1063 29.1667 96.523 30.17C95.963 31.15 95.683 32.2817 95.683 33.565V49H85.043V20.265H95.683V24.5C95.963 23.73 96.5463 22.96 97.433 22.19C98.343 21.3967 99.4747 20.7433 100.828 20.23C102.205 19.6933 103.686 19.425 105.273 19.425ZM144.041 19.425C146.048 19.425 148.008 19.8333 149.921 20.65C151.834 21.4667 153.409 22.7617 154.646 24.535C155.883 26.285 156.501 28.595 156.501 31.465V49H145.826V33.215C145.826 31.1617 145.336 29.6217 144.356 28.595C143.376 27.545 142.093 27.02 140.506 27.02C139.456 27.02 138.464 27.3 137.531 27.86C136.621 28.3967 135.874 29.1667 135.291 30.17C134.731 31.15 134.451 32.2817 134.451 33.565V49H123.811V20.265H134.451V24.5C134.731 23.73 135.314 22.96 136.201 22.19C137.111 21.3967 138.243 20.7433 139.596 20.23C140.973 19.6933 142.454 19.425 144.041 19.425ZM171.504 36.89C171.574 37.9167 171.901 38.8267 172.484 39.62C173.067 40.4133 173.872 41.0433 174.899 41.51C175.949 41.9533 177.186 42.175 178.609 42.175C179.962 42.175 181.176 42.035 182.249 41.755C183.346 41.475 184.291 41.125 185.084 40.705C185.901 40.285 186.531 39.8533 186.974 39.41L191.104 45.99C190.521 46.62 189.692 47.2383 188.619 47.845C187.569 48.4283 186.181 48.9067 184.454 49.28C182.727 49.6533 180.546 49.84 177.909 49.84C174.736 49.84 171.912 49.245 169.439 48.055C166.966 46.865 165.017 45.115 163.594 42.805C162.171 40.495 161.459 37.6717 161.459 34.335C161.459 31.535 162.066 29.015 163.279 26.775C164.516 24.5117 166.301 22.7267 168.634 21.42C170.967 20.09 173.779 19.425 177.069 19.425C180.196 19.425 182.902 19.9967 185.189 21.14C187.499 22.2833 189.272 23.9867 190.509 26.25C191.769 28.49 192.399 31.29 192.399 34.65C192.399 34.8367 192.387 35.21 192.364 35.77C192.364 36.33 192.341 36.7033 192.294 36.89H171.504ZM182.389 31.325C182.366 30.5783 182.167 29.8433 181.794 29.12C181.421 28.3733 180.861 27.7667 180.114 27.3C179.367 26.81 178.411 26.565 177.244 26.565C176.077 26.565 175.086 26.7983 174.269 27.265C173.476 27.7083 172.869 28.2917 172.449 29.015C172.029 29.7383 171.796 30.5083 171.749 31.325H182.389ZM207.977 49H197.337V20.265H207.977V24.71H207.802C207.989 24.1733 208.444 23.4967 209.167 22.68C209.891 21.84 210.906 21.0933 212.212 20.44C213.519 19.7633 215.117 19.425 217.007 19.425C218.337 19.425 219.562 19.635 220.682 20.055C221.802 20.4517 222.619 20.8367 223.132 21.21L219.002 29.855C218.676 29.4583 218.092 29.05 217.252 28.63C216.436 28.1867 215.409 27.965 214.172 27.965C212.749 27.965 211.571 28.3267 210.637 29.05C209.727 29.7733 209.051 30.6483 208.607 31.675C208.187 32.7017 207.977 33.67 207.977 34.58V49ZM238.753 19.425C240.643 19.425 242.369 19.5883 243.933 19.915C245.496 20.2183 246.803 20.5683 247.853 20.965C248.926 21.3617 249.614 21.6883 249.918 21.945L246.453 28.21C246.009 27.8833 245.181 27.4633 243.968 26.95C242.778 26.4367 241.448 26.18 239.978 26.18C238.858 26.18 237.913 26.355 237.143 26.705C236.373 27.0317 235.988 27.5567 235.988 28.28C235.988 29.0033 236.408 29.5867 237.248 30.03C238.111 30.45 239.348 30.8233 240.958 31.15C242.358 31.43 243.781 31.8733 245.228 32.48C246.674 33.0867 247.876 33.985 248.833 35.175C249.813 36.3417 250.303 37.905 250.303 39.865C250.303 41.8717 249.871 43.5283 249.008 44.835C248.144 46.1417 247.001 47.1567 245.578 47.88C244.154 48.6033 242.614 49.105 240.958 49.385C239.301 49.6883 237.691 49.84 236.128 49.84C233.934 49.84 232.021 49.6417 230.388 49.245C228.778 48.8483 227.471 48.3933 226.468 47.88C225.464 47.3667 224.764 46.9583 224.368 46.655L227.798 39.655C228.404 40.1683 229.396 40.7517 230.773 41.405C232.149 42.035 233.608 42.35 235.148 42.35C236.641 42.35 237.796 42.1283 238.613 41.685C239.429 41.2417 239.838 40.6583 239.838 39.935C239.838 39.3517 239.639 38.885 239.243 38.535C238.846 38.185 238.286 37.8817 237.563 37.625C236.839 37.3683 235.964 37.135 234.938 36.925C234.004 36.7383 233.013 36.4467 231.963 36.05C230.913 35.6533 229.921 35.1167 228.988 34.44C228.054 33.74 227.296 32.865 226.713 31.815C226.129 30.765 225.838 29.4933 225.838 28C225.838 26.0867 226.456 24.5 227.693 23.24C228.929 21.98 230.528 21.035 232.488 20.405C234.448 19.7517 236.536 19.425 238.753 19.425ZM275.001 49V0.839998H285.641V24.465C285.851 23.8117 286.388 23.1 287.251 22.33C288.138 21.5367 289.293 20.86 290.716 20.3C292.163 19.7167 293.796 19.425 295.616 19.425C298.416 19.425 300.843 20.1133 302.896 21.49C304.949 22.8667 306.536 24.71 307.656 27.02C308.776 29.3067 309.336 31.85 309.336 34.65C309.336 37.45 308.776 40.005 307.656 42.315C306.536 44.6017 304.949 46.4333 302.896 47.81C300.843 49.1633 298.416 49.84 295.616 49.84C294.076 49.84 292.618 49.56 291.241 49C289.888 48.4633 288.709 47.775 287.706 46.935C286.726 46.0717 286.003 45.2083 285.536 44.345V49H275.001ZM298.906 34.65C298.906 33.3433 298.614 32.1767 298.031 31.15C297.471 30.1 296.689 29.2833 295.686 28.7C294.706 28.0933 293.598 27.79 292.361 27.79C291.078 27.79 289.923 28.0933 288.896 28.7C287.893 29.2833 287.099 30.1 286.516 31.15C285.933 32.1767 285.641 33.3433 285.641 34.65C285.641 35.9567 285.933 37.135 286.516 38.185C287.099 39.2117 287.893 40.0167 288.896 40.6C289.923 41.1833 291.078 41.475 292.361 41.475C293.598 41.475 294.706 41.1833 295.686 40.6C296.689 40.0167 297.471 39.2117 298.031 38.185C298.614 37.135 298.906 35.9567 298.906 34.65ZM329.258 49.84C326.108 49.84 323.308 49.1983 320.858 47.915C318.431 46.6083 316.518 44.8233 315.118 42.56C313.741 40.2733 313.053 37.66 313.053 34.72C313.053 31.78 313.741 29.1667 315.118 26.88C316.518 24.57 318.431 22.75 320.858 21.42C323.308 20.09 326.108 19.425 329.258 19.425C332.408 19.425 335.184 20.09 337.588 21.42C339.991 22.75 341.869 24.57 343.223 26.88C344.576 29.1667 345.253 31.78 345.253 34.72C345.253 37.66 344.576 40.2733 343.223 42.56C341.869 44.8233 339.991 46.6083 337.588 47.915C335.184 49.1983 332.408 49.84 329.258 49.84ZM329.258 41.09C330.471 41.09 331.521 40.8217 332.408 40.285C333.294 39.7483 333.983 38.99 334.473 38.01C334.963 37.03 335.208 35.9217 335.208 34.685C335.208 33.425 334.963 32.305 334.473 31.325C333.983 30.345 333.294 29.575 332.408 29.015C331.521 28.455 330.471 28.175 329.258 28.175C328.044 28.175 326.983 28.455 326.073 29.015C325.186 29.575 324.486 30.345 323.973 31.325C323.483 32.305 323.238 33.425 323.238 34.685C323.238 35.9217 323.483 37.03 323.973 38.01C324.486 38.99 325.186 39.7483 326.073 40.285C326.983 40.8217 328.044 41.09 329.258 41.09ZM373.435 49V44.345C373.225 44.8117 372.688 45.4883 371.825 46.375C370.985 47.2617 369.865 48.0667 368.465 48.79C367.065 49.49 365.431 49.84 363.565 49.84C360.765 49.84 358.315 49.1633 356.215 47.81C354.115 46.4333 352.481 44.6017 351.315 42.315C350.148 40.005 349.565 37.45 349.565 34.65C349.565 31.85 350.148 29.3067 351.315 27.02C352.481 24.71 354.115 22.8667 356.215 21.49C358.315 20.1133 360.765 19.425 363.565 19.425C365.361 19.425 366.936 19.7167 368.29 20.3C369.643 20.86 370.74 21.5367 371.58 22.33C372.42 23.1 373.003 23.8117 373.33 24.465V20.265H383.9V49H373.435ZM359.995 34.65C359.995 35.9567 360.298 37.135 360.905 38.185C361.511 39.2117 362.316 40.0167 363.32 40.6C364.346 41.1833 365.478 41.475 366.715 41.475C367.998 41.475 369.13 41.1833 370.11 40.6C371.09 40.0167 371.86 39.2117 372.42 38.185C373.003 37.135 373.295 35.9567 373.295 34.65C373.295 33.3433 373.003 32.1767 372.42 31.15C371.86 30.1 371.09 29.2833 370.11 28.7C369.13 28.0933 367.998 27.79 366.715 27.79C365.478 27.79 364.346 28.0933 363.32 28.7C362.316 29.2833 361.511 30.1 360.905 31.15C360.298 32.1767 359.995 33.3433 359.995 34.65ZM400.732 49H390.092V20.265H400.732V24.71H400.557C400.743 24.1733 401.198 23.4967 401.922 22.68C402.645 21.84 403.66 21.0933 404.967 20.44C406.273 19.7633 407.872 19.425 409.762 19.425C411.092 19.425 412.317 19.635 413.437 20.055C414.557 20.4517 415.373 20.8367 415.887 21.21L411.757 29.855C411.43 29.4583 410.847 29.05 410.007 28.63C409.19 28.1867 408.163 27.965 406.927 27.965C405.503 27.965 404.325 28.3267 403.392 29.05C402.482 29.7733 401.805 30.6483 401.362 31.675C400.942 32.7017 400.732 33.67 400.732 34.58V49ZM430.673 49.84C427.897 49.84 425.482 49.1633 423.428 47.81C421.375 46.4333 419.777 44.6017 418.633 42.315C417.513 40.005 416.953 37.45 416.953 34.65C416.953 31.85 417.513 29.3067 418.633 27.02C419.777 24.71 421.375 22.8667 423.428 21.49C425.482 20.1133 427.897 19.425 430.673 19.425C432.517 19.425 434.15 19.7167 435.573 20.3C436.997 20.86 438.152 21.5367 439.038 22.33C439.925 23.1 440.462 23.8117 440.648 24.465V0.839998H451.288V49H440.753V44.345C440.31 45.2083 439.587 46.0717 438.583 46.935C437.58 47.775 436.402 48.4633 435.048 49C433.695 49.56 432.237 49.84 430.673 49.84ZM433.928 41.475C435.212 41.475 436.355 41.1833 437.358 40.6C438.385 40.0167 439.19 39.2117 439.773 38.185C440.357 37.135 440.648 35.9567 440.648 34.65C440.648 33.3433 440.357 32.1767 439.773 31.15C439.19 30.1 438.385 29.2833 437.358 28.7C436.355 28.0933 435.212 27.79 433.928 27.79C432.692 27.79 431.572 28.0933 430.568 28.7C429.588 29.2833 428.807 30.1 428.223 31.15C427.663 32.1767 427.383 33.3433 427.383 34.65C427.383 35.9567 427.663 37.135 428.223 38.185C428.807 39.2117 429.588 40.0167 430.568 40.6C431.572 41.1833 432.692 41.475 433.928 41.475Z" fill="black"/>
</svg>
